<svg xmlns="http://www.w3.org/2000/svg" xmlns:xlink="http://www.w3.org/1999/xlink" width="424" height="896" viewBox="0 0 424 896">
  <defs>
    <clipPath id="clip-iPhone_XR_XS_Max_11_7">
      <rect width="424" height="896"/>
    </clipPath>
  </defs>
  <g id="iPhone_XR_XS_Max_11_7" data-name="iPhone XR, XS Max, 11 – 7" clip-path="url(#clip-iPhone_XR_XS_Max_11_7)">
    <rect width="424" height="896" fill="#fff"/>
    <g id="Rectangle_1" data-name="Rectangle 1" transform="translate(49 239)" fill="#fff" stroke="#d8d8d8" stroke-width="1">
      <rect width="325" height="534" stroke="none"/>
      <rect x="0.5" y="0.5" width="324" height="533" fill="none"/>
    </g>
    <line id="Line_2" data-name="Line 2" x2="268" y2="1" transform="translate(77.5 422.5)" fill="none" stroke="#d8d8d8" stroke-width="1"/>
    <line id="Line_3" data-name="Line 3" x2="268" y2="1" transform="translate(77.5 376.5)" fill="none" stroke="#d8d8d8" stroke-width="1"/>
    <line id="Line_4" data-name="Line 4" x2="268" y2="1" transform="translate(77.5 330.5)" fill="none" stroke="#d8d8d8" stroke-width="1"/>
    <line id="Line_5" data-name="Line 5" x2="268" y2="1" transform="translate(77.5 284.5)" fill="none" stroke="#d8d8d8" stroke-width="1"/>
    <line id="Line_6" data-name="Line 6" x2="268" y2="1" transform="translate(77.5 514.5)" fill="none" stroke="#d8d8d8" stroke-width="1"/>
    <line id="Line_7" data-name="Line 7" x2="268" y2="1" transform="translate(77.5 468.5)" fill="none" stroke="#d8d8d8" stroke-width="1"/>
    <line id="Line_8" data-name="Line 8" x2="268" y2="1" transform="translate(77.5 560.5)" fill="none" stroke="#d8d8d8" stroke-width="1"/>
    <text id="Groceries" transform="translate(-45 188)" stroke="#d8d8d8" stroke-width="1" font-size="23" font-family="HelveticaNeue, Helvetica Neue"><tspan x="96.49" y="22">GROCERIES</tspan></text>
    <text id="item_1" data-name="item 1" transform="translate(190 256)" stroke="#d8d8d8" stroke-width="1" font-size="18" font-family="ArialMT, Arial"><tspan x="30.492" y="16">item 1</tspan></text>
    <text id="item" transform="translate(189 578)" stroke="#d8d8d8" stroke-width="1" font-size="18" font-family="ArialMT, Arial"><tspan x="37.998" y="16">item</tspan></text>
    <text id="item-2" data-name="item" transform="translate(189 532)" stroke="#d8d8d8" stroke-width="1" font-size="18" font-family="ArialMT, Arial"><tspan x="37.998" y="16">item</tspan></text>
    <text id="item-3" data-name="item" transform="translate(189 485)" stroke="#d8d8d8" stroke-width="1" font-size="18" font-family="ArialMT, Arial"><tspan x="37.998" y="16">item</tspan></text>
    <text id="item-4" data-name="item" transform="translate(190 439)" stroke="#d8d8d8" stroke-width="1" font-size="18" font-family="ArialMT, Arial"><tspan x="37.998" y="16">item</tspan></text>
    <text id="item-5" data-name="item" transform="translate(189 393)" stroke="#d8d8d8" stroke-width="1" font-size="18" font-family="ArialMT, Arial"><tspan x="37.998" y="16">item</tspan></text>
    <text id="item-6" data-name="item" transform="translate(189 347)" stroke="#d8d8d8" stroke-width="1" font-size="18" font-family="ArialMT, Arial"><tspan x="37.998" y="16">item</tspan></text>
    <text id="item-7" data-name="item" transform="translate(189 301)" stroke="#d8d8d8" stroke-width="1" font-size="18" font-family="ArialMT, Arial"><tspan x="37.998" y="16">item</tspan></text>
    <rect id="Rectangle_3" data-name="Rectangle 3" width="126" height="41" rx="20" transform="translate(148 803)" fill="#fff" stroke="#d8d8d8" stroke-width="1"/>
    <text id="Add_to_list" data-name="Add to list" transform="translate(150 814)" stroke="#d8d8d8" stroke-width="1" font-size="18" font-family="ArialMT, Arial"><tspan x="21.98" y="16">Add to list</tspan></text>
    <rect id="Rectangle_4" data-name="Rectangle 4" width="126" height="26" rx="9" transform="translate(248 188)" fill="#fff" stroke="#d8d8d8" stroke-width="1"/>
    <text id="Sort_items" data-name="Sort items" transform="translate(244 191)" stroke="#d8d8d8" stroke-width="1" font-size="15" font-family="ArialMT, Arial"><tspan x="27.743" y="14">Sort items</tspan></text>
    <text id="item-8" data-name="item" transform="translate(190 718)" stroke="#d8d8d8" stroke-width="1" font-size="18" font-family="ArialMT, Arial"><tspan x="37.998" y="16">item</tspan></text>
    <text id="item-9" data-name="item" transform="translate(189 671)" stroke="#d8d8d8" stroke-width="1" font-size="18" font-family="ArialMT, Arial"><tspan x="37.998" y="16">item</tspan></text>
    <text id="item-10" data-name="item" transform="translate(189 624)" stroke="#d8d8d8" stroke-width="1" font-size="18" font-family="ArialMT, Arial"><tspan x="37.998" y="16">item</tspan></text>
    <line id="Line_10" data-name="Line 10" x2="268" y2="1" transform="translate(77.5 747.5)" fill="none" stroke="#d8d8d8" stroke-width="1"/>
    <line id="Line_11" data-name="Line 11" x2="268" y2="1" transform="translate(77.5 700.5)" fill="none" stroke="#d8d8d8" stroke-width="1"/>
    <line id="Line_12" data-name="Line 12" x2="268" y2="1" transform="translate(77.5 653.5)" fill="none" stroke="#d8d8d8" stroke-width="1"/>
    <line id="Line_13" data-name="Line 13" x2="268" y2="1" transform="translate(77.5 606.5)" fill="none" stroke="#d8d8d8" stroke-width="1"/>
    <rect id="Rectangle_8" data-name="Rectangle 8" width="69" height="40" rx="9" transform="translate(52 118)" fill="#fff" stroke="#d8d8d8" stroke-width="1"/>
    <text id="Home" transform="translate(12 125)" stroke="#d8d8d8" stroke-width="1" font-size="18" font-family="HelveticaNeue, Helvetica Neue"><tspan x="50.826" y="17">Home</tspan></text>
    <text id="Grocery_Store_app" data-name="Grocery Store app" transform="translate(45 52)" stroke="#d8d8d8" stroke-width="1" font-size="30" font-family="HelveticaNeue, Helvetica Neue"><tspan x="3.335" y="29">GROCERY STORE APP</tspan></text>
    <g id="Polygon_2" data-name="Polygon 2" transform="translate(357 205) rotate(180)" fill="#fff">
      <path d="M 7.190984725952148 7.5 L 0.8090147376060486 7.5 L 3.999999761581421 1.118029952049255 L 7.190984725952148 7.5 Z" stroke="none"/>
      <path d="M 3.999999761581421 2.236070156097412 L 1.618034839630127 7 L 6.381964683532715 7 L 3.999999761581421 2.236070156097412 M 3.999999761581421 0 L 8 8 L -4.76837158203125e-07 8 L 3.999999761581421 0 Z" stroke="none" fill="#d8d8d8"/>
    </g>
    <rect id="Rectangle_10" data-name="Rectangle 10" width="69" height="40" rx="9" transform="translate(304 118)" fill="#fff" stroke="#d8d8d8" stroke-width="1"/>
    <rect id="Rectangle_11" data-name="Rectangle 11" width="69" height="40" rx="9" transform="translate(220 118)" fill="#fff" stroke="#d8d8d8" stroke-width="1"/>
    <rect id="Rectangle_12" data-name="Rectangle 12" width="69" height="40" rx="9" transform="translate(136 118)" fill="#fff" stroke="#d8d8d8" stroke-width="1"/>
    <text id="Search" transform="translate(95 126)" stroke="#d8d8d8" stroke-width="1" font-size="18" font-family="HelveticaNeue, Helvetica Neue"><tspan x="46.83" y="17">Search</tspan></text>
    <text id="My_List" data-name="My List" transform="translate(264 126)" stroke="#d8d8d8" stroke-width="1" font-size="18" font-family="HelveticaNeue, Helvetica Neue"><tspan x="45.822" y="17">My List</tspan></text>
    <text id="Locate" transform="translate(180 126)" stroke="#d8d8d8" stroke-width="1" font-size="18" font-family="HelveticaNeue, Helvetica Neue"><tspan x="47.496" y="17">Locate</tspan></text>
    <g id="Ellipse_5" data-name="Ellipse 5" transform="translate(136 381)" fill="#fff" stroke="#d8d8d8" stroke-width="1">
      <ellipse cx="20" cy="19.5" rx="20" ry="19.5" stroke="none"/>
      <ellipse cx="20" cy="19.5" rx="19.5" ry="19" fill="none"/>
    </g>
    <g id="Ellipse_6" data-name="Ellipse 6" transform="translate(136 428)" fill="#fff" stroke="#d8d8d8" stroke-width="1">
      <ellipse cx="20" cy="19.5" rx="20" ry="19.5" stroke="none"/>
      <ellipse cx="20" cy="19.5" rx="19.5" ry="19" fill="none"/>
    </g>
    <g id="Ellipse_7" data-name="Ellipse 7" transform="translate(136 471)" fill="#fff" stroke="#d8d8d8" stroke-width="1">
      <ellipse cx="20" cy="19.5" rx="20" ry="19.5" stroke="none"/>
      <ellipse cx="20" cy="19.5" rx="19.5" ry="19" fill="none"/>
    </g>
    <g id="Ellipse_8" data-name="Ellipse 8" transform="translate(136 517)" fill="#fff" stroke="#d8d8d8" stroke-width="1">
      <ellipse cx="20" cy="19.5" rx="20" ry="19.5" stroke="none"/>
      <ellipse cx="20" cy="19.5" rx="19.5" ry="19" fill="none"/>
    </g>
    <g id="Ellipse_9" data-name="Ellipse 9" transform="translate(136 565)" fill="#fff" stroke="#d8d8d8" stroke-width="1">
      <ellipse cx="20" cy="19.5" rx="20" ry="19.5" stroke="none"/>
      <ellipse cx="20" cy="19.5" rx="19.5" ry="19" fill="none"/>
    </g>
    <g id="Ellipse_10" data-name="Ellipse 10" transform="translate(136 610)" fill="#fff" stroke="#d8d8d8" stroke-width="1">
      <ellipse cx="20" cy="19.5" rx="20" ry="19.5" stroke="none"/>
      <ellipse cx="20" cy="19.5" rx="19.5" ry="19" fill="none"/>
    </g>
    <g id="Ellipse_11" data-name="Ellipse 11" transform="translate(136 657)" fill="#fff" stroke="#d8d8d8" stroke-width="1">
      <ellipse cx="20" cy="19.5" rx="20" ry="19.5" stroke="none"/>
      <ellipse cx="20" cy="19.5" rx="19.5" ry="19" fill="none"/>
    </g>
    <g id="Ellipse_12" data-name="Ellipse 12" transform="translate(136 704)" fill="#fff" stroke="#d8d8d8" stroke-width="1">
      <ellipse cx="20" cy="19.5" rx="20" ry="19.5" stroke="none"/>
      <ellipse cx="20" cy="19.5" rx="19.5" ry="19" fill="none"/>
    </g>
    <g id="Ellipse_13" data-name="Ellipse 13" transform="translate(136 335)" fill="#fff" stroke="#d8d8d8" stroke-width="1">
      <ellipse cx="20" cy="19.5" rx="20" ry="19.5" stroke="none"/>
      <ellipse cx="20" cy="19.5" rx="19.5" ry="19" fill="none"/>
    </g>
    <g id="Ellipse_14" data-name="Ellipse 14" transform="translate(136 290)" fill="#fff" stroke="#d8d8d8" stroke-width="1">
      <ellipse cx="20" cy="19.5" rx="20" ry="19.5" stroke="none"/>
      <ellipse cx="20" cy="19.5" rx="19.5" ry="19" fill="none"/>
    </g>
    <g id="Ellipse_15" data-name="Ellipse 15" transform="translate(136 244)" fill="#fff" stroke="#d8d8d8" stroke-width="1">
      <ellipse cx="20" cy="19.5" rx="20" ry="19.5" stroke="none"/>
      <ellipse cx="20" cy="19.5" rx="19.5" ry="19" fill="none"/>
    </g>
    <text id="IMG" transform="translate(128 257)" stroke="#d8d8d8" stroke-width="1" font-size="10" font-family="ArialMT, Arial"><tspan x="19.057" y="9">IMG</tspan></text>
    <text id="IMG-2" data-name="IMG" transform="translate(128 625)" stroke="#d8d8d8" stroke-width="1" font-size="10" font-family="ArialMT, Arial"><tspan x="19.057" y="9">IMG</tspan></text>
    <text id="IMG-3" data-name="IMG" transform="translate(128 579)" stroke="#d8d8d8" stroke-width="1" font-size="10" font-family="ArialMT, Arial"><tspan x="19.057" y="9">IMG</tspan></text>
    <text id="IMG-4" data-name="IMG" transform="translate(128 533)" stroke="#d8d8d8" stroke-width="1" font-size="10" font-family="ArialMT, Arial"><tspan x="19.057" y="9">IMG</tspan></text>
    <text id="IMG-5" data-name="IMG" transform="translate(128 487)" stroke="#d8d8d8" stroke-width="1" font-size="10" font-family="ArialMT, Arial"><tspan x="19.057" y="9">IMG</tspan></text>
    <text id="IMG-6" data-name="IMG" transform="translate(128 441)" stroke="#d8d8d8" stroke-width="1" font-size="10" font-family="ArialMT, Arial"><tspan x="19.057" y="9">IMG</tspan></text>
    <text id="IMG-7" data-name="IMG" transform="translate(128 395)" stroke="#d8d8d8" stroke-width="1" font-size="10" font-family="ArialMT, Arial"><tspan x="19.057" y="9">IMG</tspan></text>
    <text id="IMG-8" data-name="IMG" transform="translate(128 349)" stroke="#d8d8d8" stroke-width="1" font-size="10" font-family="ArialMT, Arial"><tspan x="19.057" y="9">IMG</tspan></text>
    <text id="IMG-9" data-name="IMG" transform="translate(128 303)" stroke="#d8d8d8" stroke-width="1" font-size="10" font-family="ArialMT, Arial"><tspan x="19.057" y="9">IMG</tspan></text>
    <text id="IMG-10" data-name="IMG" transform="translate(128 714)" stroke="#d8d8d8" stroke-width="1" font-size="10" font-family="ArialMT, Arial"><tspan x="19.057" y="9">IMG</tspan></text>
    <text id="IMG-11" data-name="IMG" transform="translate(128 672)" stroke="#d8d8d8" stroke-width="1" font-size="10" font-family="ArialMT, Arial"><tspan x="19.057" y="9">IMG</tspan></text>
    <line id="Line_4-2" data-name="Line 4" x2="268" y2="1" transform="translate(77.5 330.5)" fill="none" stroke="#ddd" stroke-width="1"/>
    <line id="Line_5-2" data-name="Line 5" x2="268" y2="1" transform="translate(77.5 284.5)" fill="none" stroke="#ddd" stroke-width="1"/>
    <g id="Ellipse_2" data-name="Ellipse 2" transform="translate(292 349)" fill="#fff" stroke="#000" stroke-width="1">
      <circle cx="13" cy="13" r="13" stroke="none"/>
      <circle cx="13" cy="13" r="12.5" fill="none"/>
    </g>
    <text id="item-11" data-name="item" transform="translate(251 248)" stroke="#d5d5d5" stroke-width="1" font-size="18" font-family="ArialMT, Arial"><tspan x="37.998" y="16">item</tspan></text>
    <text id="item-12" data-name="item" transform="translate(251 340)" stroke="#d5d5d5" stroke-width="1" font-size="18" font-family="ArialMT, Arial"><tspan x="37.998" y="16">item</tspan></text>
    <text id="item-13" data-name="item" transform="translate(251 294)" stroke="#d5d5d5" stroke-width="1" font-size="18" font-family="ArialMT, Arial"><tspan x="37.998" y="16">item</tspan></text>
    <g id="Rectangle_5" data-name="Rectangle 5" transform="translate(227 218)" fill="#fff" stroke="#707070" stroke-width="1">
      <rect width="158" height="168" stroke="none"/>
      <rect x="0.5" y="0.5" width="157" height="167" fill="none"/>
    </g>
    <text id="Sort_by_alphabet_Sort_by_category" data-name="Sort by alphabet

Sort by category" transform="translate(245.5 234.5)" font-size="18" font-family="ArialMT, Arial"><tspan x="32.488" y="16">Sort by </tspan><tspan x="26.468" y="37">alphabet</tspan><tspan x="61" y="58"></tspan><tspan x="32.488" y="79">Sort by </tspan><tspan x="26.481" y="100">category</tspan></text>
    <line id="Line_14" data-name="Line 14" x2="114" transform="translate(246.5 287.5)" fill="none" stroke="#000" stroke-width="1"/>
    <g id="Ellipse_3" data-name="Ellipse 3" transform="translate(293 351)" fill="#fff" stroke="#707070" stroke-width="1">
      <circle cx="13" cy="13" r="13" stroke="none"/>
      <circle cx="13" cy="13" r="12.5" fill="none"/>
    </g>
    <text id="X" transform="translate(296 358)" font-size="12" font-family="ArialMT, Arial"><tspan x="5.498" y="11">X</tspan></text>
  </g>
</svg>
